<?xml version="1.0" encoding="UTF-8"?>
<svg width="14px" height="14px" viewBox="0 0 14 14" version="1.1" xmlns="http://www.w3.org/2000/svg" xmlns:xlink="http://www.w3.org/1999/xlink">
    <title>换一换</title>
    <g id="页面-1" stroke="none" stroke-width="1" fill="none" fill-rule="evenodd">
        <g id="编组-18" transform="translate(-9, -7)" fill="#88C1D0" fill-rule="nonzero">
            <g id="换一换" transform="translate(9, 7)">
                <path d="M7.15293167,0 C8.92914259,0 10.6012644,0.637913043 11.8923348,1.75669565 L11.8923348,0.913043478 C11.8923755,0.604450104 12.1233439,0.344714118 12.4298242,0.308608696 L12.5004344,0.304347826 C12.8092664,0.304079753 13.0693572,0.535121406 13.1054905,0.841826087 L13.1091427,0.913043478 L13.1091427,3.34782609 C13.109102,3.65641946 12.8781336,3.91615545 12.5716533,3.95226087 L12.5004344,3.95652174 L10.0656011,3.95652174 C9.74365229,3.95584698 9.47790394,3.70459474 9.45919694,3.38319591 C9.44048995,3.06179709 9.67529436,2.78141142 9.99499089,2.7433913 L10.0656011,2.73913043 L11.165537,2.73913043 C10.0612605,1.7547025 8.63230458,1.21278574 7.15293167,1.2173913 C3.87138502,1.2173913 1.21680797,3.80982609 1.21680797,7 C1.21680797,10.1901739 3.87077631,12.7826087 7.15293167,12.7826087 C9.76063818,12.7826087 12.0372074,11.13 12.8120931,8.75 C12.916309,8.43029918 13.2599668,8.25561238 13.5796743,8.35982611 C13.8993818,8.46403984 14.0740722,8.80769048 13.9698563,9.1273913 C13.0318368,12.0083478 10.2871709,14 7.15232296,14 C3.2054581,14 0,10.8694783 0,7 C0,3.13052174 3.2054581,0 7.15293167,0 Z" id="路径"></path>
            </g>
        </g>
    </g>
</svg>