<?xml version="1.0" encoding="UTF-8"?>
<svg width="16px" height="16px" viewBox="0 0 16 16" version="1.1" xmlns="http://www.w3.org/2000/svg" xmlns:xlink="http://www.w3.org/1999/xlink">
    <title>原文</title>
    <g id="页面-1" stroke="none" stroke-width="1" fill="none" fill-rule="evenodd">
        <g id="文档理解-查看文档" transform="translate(-999, -669)" fill="#4D566A">
            <g id="详情" transform="translate(999, 669)">
                <path d="M9.22208529,9.6 L3.60863,9.6 L3.60863,11.1238095 L9.22208529,11.1238095 L9.22208529,9.6 Z M3.60890771,5.40952381 L9.22208529,5.40952381 L9.22208529,6.93333333 L3.60863,6.93333333 L3.60863,5.40952381 L3.60890771,5.40952381 Z" id="形状" fill-rule="nonzero"></path>
                <path d="M0,3.04761905 C0,1.36450216 1.36774686,0 3.05486609,0 L9.77557149,0 C11.4626907,0 12.8304376,1.36450216 12.8304376,3.04761905 L12.8304376,16 L3.05486609,16 C1.36774686,16 0,14.6354978 0,12.952381 L0,3.04761905 Z M3.05486609,1.52380952 L9.77557149,1.52380952 C10.6191495,1.52380952 11.3030045,2.20604229 11.3030045,3.04761905 L11.3030045,14.4761905 L3.05486609,14.4761905 C2.21128811,14.4761905 1.52743304,13.7939577 1.52743304,12.952381 L1.52743304,3.04761905 C1.52743304,2.20604229 2.21128811,1.52380952 3.05486609,1.52380952 Z" id="形状"></path>
                <path d="M12.8307153,7.96204329 L13.7088504,7.96204329 C14.1306394,7.96204329 14.472567,8.30315967 14.472567,8.72394805 L14.472567,13.676329 C14.472567,14.0971174 14.1306394,14.4382338 13.7088504,14.4382338 L12.8307153,14.4382338 L12.8307153,15.9620433 L13.7088504,15.9620433 C14.9742174,15.9620433 16,14.9386941 16,13.676329 L16,8.72394805 C16,7.46158291 14.9742174,6.43823377 13.7088504,6.43823377 L12.8307153,6.43823377 L12.8307153,7.96204329 L12.8307153,7.96204329 Z" id="路径" fill-rule="nonzero"></path>
            </g>
        </g>
    </g>
</svg>