<?xml version="1.0" encoding="UTF-8"?>
<svg width="14px" height="14px" viewBox="0 0 14 14" version="1.1" xmlns="http://www.w3.org/2000/svg" xmlns:xlink="http://www.w3.org/1999/xlink">
    <title>编辑输入_线</title>
    <g id="页面-1" stroke="none" stroke-width="1" fill="none" fill-rule="evenodd">
        <g id="hover对话" transform="translate(-1098, -248)" fill="#333844" fill-rule="nonzero">
            <g id="编组-10" transform="translate(1095, 245)">
                <g id="编辑输入_线" transform="translate(3, 3)">
                    <path d="M11.2735673,0.0569954324 C11.5226387,0.13238461 11.7297211,0.247217915 12.1737872,0.691282438 L13.3090822,1.82657347 L13.4325046,1.9528583 C13.7754152,2.31230881 13.8752983,2.50253129 13.9433714,2.72679024 C14.0188762,2.97209071 14.0188762,3.23442724 13.9433714,3.47972772 C13.8676639,3.72879829 13.7531483,3.93619806 13.3090822,4.37994448 L4.97807179,12.7106077 C4.73122704,12.9539525 4.6265725,13.0427018 4.50187772,13.131133 C4.36500833,13.2292049 4.21511487,13.3076846 4.05653925,13.3642986 L3.97001635,13.3938817 C3.84150439,13.4349163 3.68881691,13.4702252 3.36880941,13.5290733 L0.82974392,13.9887246 C0.602521815,14.0298612 0.369568307,13.9569961 0.206286169,13.7937146 C0.0430040309,13.630433 -0.0298612692,13.3974803 0.0112754279,13.170259 L0.484288505,10.5605847 C0.548544485,10.22022 0.583853464,10.0875732 0.636021685,9.94347494 C0.694869983,9.78029077 0.76866893,9.63969154 0.868870086,9.49813802 L0.927082186,9.41956787 C1.00883361,9.3142775 1.11476054,9.1981718 1.34061077,8.97104997 L9.62008917,0.690646242 C10.0641552,0.246899817 10.2712376,0.132066512 10.5203091,0.0566773346 C10.765709,-0.0188924449 11.0281674,-0.0188924449 11.2735673,0.0566773346 L11.2735673,0.0569954324 Z M13.7429691,11.950672 L13.7429691,13.254873 L6.17857707,13.254873 L7.58711904,11.950672 L13.7429691,11.950672 Z M10.8969382,1.30521118 L10.88994,1.30775597 C10.8489052,1.32207037 10.8050076,1.35388015 10.6271903,1.52883394 L2.18007379,9.97687521 C2.02738631,10.1327431 1.97617239,10.1919093 1.93227474,10.2536203 C1.90014675,10.2987902 1.88137891,10.3347352 1.86229298,10.3872214 L1.84479754,10.4397075 C1.82189442,10.516051 1.798037,10.6257947 1.75254885,10.8755015 L1.4487644,12.5515588 L3.23838886,12.2267809 C3.41016227,12.1940168 3.49668517,12.1746129 3.56030495,12.1552089 L3.61310937,12.1377135 C3.65223554,12.1237172 3.68245493,12.1094028 3.71394673,12.0899989 L3.74671091,12.067732 C3.82337275,12.0136554 3.90003459,11.9446282 4.16246619,11.6821975 L12.5062006,3.33690181 C12.6283505,3.21188937 12.6674767,3.16322041 12.6846541,3.12822965 L12.6945151,3.10341803 L12.6849722,3.0779702 C12.6674767,3.04297945 12.6283505,2.99494668 12.5065187,2.86961615 L12.3869135,2.74873898 L11.1304228,1.49384318 C11.0054099,1.37169362 10.9570589,1.33288569 10.922068,1.31570841 L10.8966201,1.30552928 L10.8969382,1.30521118 Z" id="path-1"></path>
                </g>
            </g>
        </g>
    </g>
</svg>