<?xml version="1.0" encoding="UTF-8"?>
<svg width="14px" height="14px" viewBox="0 0 14 14" version="1.1" xmlns="http://www.w3.org/2000/svg" xmlns:xlink="http://www.w3.org/1999/xlink">
    <g id="问答" stroke="none" stroke-width="1" fill="none" fill-rule="evenodd">
        <g id="医学问答-状态枚举" transform="translate(-521.000000, -3770.000000)">
            <g id="编组-13" transform="translate(54.000000, 3667.000000)">
                <g id="编组" transform="translate(442.000000, 102.000000)">
                    <g id="1.Universal-通用/ICON/Line/Sort-Down备份-117" transform="translate(24.000000, 0.000000)">
                        <rect id="矩形" stroke="#979797" fill="#D8D8D8" opacity="0" x="0.5" y="0.5" width="15" height="15"></rect>
                        <path d="M14,8 C14,11.309 11.309,14 8,14 C4.691,14 2,11.309 2,8 C2,4.691 4.691,2 8,2 C9.603,2 11.109,2.624 12.243,3.758 C12.324,3.839 12.396,3.929 12.473,4.015 L10.994,4.015 L10.994,5.015 L12.994,5.015 L13.994,5.015 L13.994,4.015 L13.994,2.015 L12.994,2.015 L12.994,3.101 C12.979,3.085 12.965,3.066 12.95,3.051 C11.628,1.729 9.87,1 8,1 C4.14,1 1,4.141 1,8 C1,11.859 4.14,15 8,15 C11.86,15 15,11.859 15,8 L14,8 Z" id="图标-填色" fill="#FFFFFF"></path>
                    </g>
                </g>
            </g>
        </g>
    </g>
</svg>
