<?xml version="1.0" encoding="UTF-8"?>
<svg width="17px" height="18px" viewBox="0 0 17 18" version="1.1" xmlns="http://www.w3.org/2000/svg" xmlns:xlink="http://www.w3.org/1999/xlink">
    <title>发送</title>
    <g id="0919" stroke="none" stroke-width="1" fill="none" fill-rule="evenodd">
        <g id="默认首页-扁鹊bot（多模态医疗问答）" transform="translate(-1007, -730)" fill="#000000" fill-rule="nonzero">
            <g id="编组-7" transform="translate(286, 664)">
                <g id="发送" transform="translate(729.5, 75) scale(-1, 1) translate(-729.5, -75)translate(721, 66)">
                    <path d="M13.5749474,5.36842106 L7.15789473,5.36842106 C5.2399426,5.36842103 3.46768174,6.40023474 2.50870566,8.07518795 C1.54972959,9.75014116 1.54972959,11.8137686 2.50870566,13.4887218 C3.46768174,15.163675 5.2399426,16.1954888 7.15789473,16.1954887 L15.2105263,16.1954887 L15.2105263,18 L7.15789473,18 C3.20469863,18 3.81449258e-16,14.7683711 3.81449258e-16,10.7819549 C3.81449258e-16,6.79553864 3.20469863,3.56390977 7.15789473,3.56390977 L13.5749474,3.56390977 L11.3058947,1.27578948 L12.5710526,-3.84654714e-16 L17,4.46616541 L12.5710526,8.93233083 L11.3058947,7.65654135 L13.5749474,5.36842106 Z" id="路径"></path>
                </g>
            </g>
        </g>
    </g>
</svg>