<?xml version="1.0" encoding="UTF-8"?>
<svg width="12px" height="14px" viewBox="0 0 12 14" version="1.1" xmlns="http://www.w3.org/2000/svg" xmlns:xlink="http://www.w3.org/1999/xlink">
    <g id="问答" stroke="none" stroke-width="1" fill="none" fill-rule="evenodd">
        <g id="医学问答-状态枚举" transform="translate(-546.000000, -3770.000000)">
            <g id="编组-13" transform="translate(54.000000, 3667.000000)">
                <g id="编组" transform="translate(442.000000, 102.000000)">
                    <g id="1.Universal-通用/ICON/Line/Sort-Down备份-119" transform="translate(48.000000, 0.000000)">
                        <rect id="矩形" stroke="#979797" fill="#D8D8D8" opacity="0" x="0.5" y="0.5" width="15" height="15"></rect>
                        <path d="M14,3.499 L14,4.5 L12.497,4.5 L12.498,14.5 L3.498,14.5 L3.497,4.5 L2,4.5 L2,3.499 L14,3.499 Z M11.497,4.5 L4.496,4.5 L4.497,13.5 L11.498,13.5 L11.497,4.5 Z M6.998,7.499 L6.998,11.499 L5.998,11.499 L5.998,7.499 L6.998,7.499 Z M9.998,7.499 L9.998,11.499 L8.998,11.499 L8.998,7.499 L9.998,7.499 Z M5.998,2.499 L9.999,2.499 L9.999,1.5 L5.998,1.5 L5.998,2.499 Z" id="形状结合" fill="#FFFFFF"></path>
                    </g>
                </g>
            </g>
        </g>
    </g>
</svg>
