<?xml version="1.0" standalone="no"?><!DOCTYPE svg PUBLIC "-//W3C//DTD SVG 1.1//EN" "http://www.w3.org/Graphics/SVG/1.1/DTD/svg11.dtd"><svg t="1708606785074" class="icon" viewBox="0 0 1024 1024" version="1.1" xmlns="http://www.w3.org/2000/svg" p-id="4910" xmlns:xlink="http://www.w3.org/1999/xlink" width="200" height="200"><path d="M176.76 511.67c0-122.784-0.015-245.57 0.007-368.354 0.008-47.33 29.553-77.092 76.583-77.103 120.391-0.03 240.782 0.046 361.172-0.158 6.77-0.01 11.322 2.091 15.886 6.947 69.107 73.508 138.443 146.8 207.447 220.403 3.273 3.49 5.603 9.405 5.61 14.194 0.279 191.53 0.272 383.061 0.21 574.591-0.014 44.303-30.47 74.602-74.937 74.617-172.378 0.056-344.755 0.058-517.133-0.001-44.394-0.016-74.794-30.382-74.82-74.727-0.072-123.471-0.025-246.94-0.025-370.409z m410.223 75.807c-17.608 0-33.529-0.257-49.422 0.299-2.183 0.077-5.057 3.836-6.188 6.497-5.472 12.87-10.462 25.945-15.616 38.95-2.504 6.316-4.996 12.637-8.32 21.048-10.807-21.808-20.19-41.117-30.03-60.19-1.437-2.785-4.98-6.23-7.666-6.334-15.6-0.6-31.234-0.294-48.214-0.294 2.118 4.161 3.516 7.15 5.12 10.023 14.153 25.334 28.039 50.826 42.715 75.854 4.247 7.243 3.702 12.215-0.837 19.01-19.54 29.247-38.465 58.908-57.58 88.44-1.784 2.754-3.336 5.66-5.774 9.825 16.03 0 30.617-0.333 45.177 0.147 6.888 0.226 11.063-1.79 14.834-7.88 12.906-20.848 26.533-41.247 40.632-62.967 11.855 21.902 22.945 42.548 34.243 63.079 1.54 2.799 4.054 7.104 6.24 7.18 17.128 0.596 34.286 0.33 52.784 0.33-2.816-4.65-4.501-7.572-6.32-10.41-19.156-29.91-38.156-59.924-57.66-89.605-3.781-5.752-3.784-9.738-0.188-15.507 12.096-19.412 23.568-39.213 35.247-58.885 5.35-9.009 10.625-18.062 16.823-28.61zM349.46 790.127V628.002H404v-39.952H253.41v40.984h52.983v161.09l43.07 0.001z m363.23-0.004V627.995h54.53V588.06H616.628v40.99h55.033v161.072h41.03z m51.014-498.186l-133.336-141.42c0 43.892-0.173 84.801 0.134 125.707 0.067 9.068 7.157 15.057 17.157 15.578 8.181 0.426 16.401 0.13 24.604 0.133 29.625 0.006 59.25 0.002 91.44 0.002z" p-id="4911" fill="#707070"></path></svg>